<svg width="186" height="313" viewBox="0 0 186 313" fill="none" xmlns="http://www.w3.org/2000/svg">
<path d="M163.583 138.607C165.63 139.021 167.408 140.409 169.34 141.118C172.3 142.185 175.636 141.707 178.573 142.828C180.47 143.618 182.1 144.985 183.256 146.753C184.412 148.522 185.041 150.612 185.064 152.758C185.031 154.906 184.467 157.007 183.427 158.855C182.387 160.703 180.907 162.235 179.134 163.299C176.672 164.788 173.94 165.693 171.466 167.183C169.227 168.585 167.47 170.51 164.966 171.473C162.654 172.409 160.095 172.423 157.774 171.51C156.375 170.935 155.177 169.924 154.34 168.612C152.9 166.459 151.12 163.091 151.368 160.336C151.599 157.819 153.013 155.76 153.866 153.458C154.719 151.156 154.753 148.382 155.184 145.845C155.92 141.487 158.97 137.653 163.583 138.607Z" fill="#F5F5F5" fill-opacity="0.82"/>
<path d="M174.392 137.474C173.712 137.186 173.054 136.844 172.425 136.45C171.586 135.962 170.898 135.231 170.442 134.345C169.985 133.458 169.78 132.453 169.85 131.447C169.882 129.63 170.209 127.832 170.817 126.131C171.201 124.808 171.787 123.56 172.553 122.437C172.804 122.068 173.13 121.763 173.507 121.544C173.885 121.325 174.303 121.196 174.734 121.169C175.346 121.226 175.938 121.426 176.468 121.753C176.998 122.081 177.452 122.529 177.796 123.064C178.989 124.62 179.933 126.369 180.591 128.244C181.186 129.764 181.417 131.415 181.263 133.052C181.185 133.872 180.93 134.662 180.518 135.364C180.106 136.065 179.548 136.658 178.886 137.099C177.63 137.802 176.166 137.969 174.796 137.565L174.392 137.474Z" fill="#F5F5F5" fill-opacity="0.82"/>
<path d="M164.611 119.914C163.201 117.113 161.03 114.855 157.897 115.022C154.238 115.221 153.301 119.943 153.719 123.096C154.05 126.526 155.484 129.734 157.784 132.19C160.867 135.075 164.594 133.5 165.833 129.587C166.648 126.319 166.209 122.845 164.611 119.914Z" fill="#F5F5F5" fill-opacity="0.82"/>
<path d="M148.88 152.636C149.065 151.888 149.187 151.123 149.244 150.352C149.359 149.355 149.202 148.343 148.789 147.437C148.377 146.53 147.727 145.766 146.916 145.235C145.483 144.185 143.891 143.399 142.208 142.911C140.969 142.457 139.667 142.224 138.356 142.219C137.922 142.215 137.493 142.312 137.1 142.505C136.706 142.697 136.359 142.98 136.083 143.332C135.778 143.897 135.598 144.527 135.554 145.175C135.51 145.823 135.604 146.473 135.829 147.078C136.333 149.015 137.132 150.854 138.193 152.524C139.025 153.915 140.161 155.078 141.506 155.915C142.183 156.323 142.938 156.565 143.716 156.623C144.493 156.682 145.274 156.555 145.999 156.253C147.276 155.593 148.263 154.441 148.755 153.037C148.801 152.903 148.847 152.77 148.88 152.636Z" fill="#F5F5F5" fill-opacity="0.82"/>
<path d="M140.075 133.812C138.727 130.97 138.333 127.776 140.32 125.234C142.632 122.246 146.816 124.259 148.922 126.44C151.345 128.771 152.948 131.895 153.469 135.305C153.837 139.622 150.407 141.833 146.688 140.569C143.733 139.305 141.362 136.882 140.075 133.812Z" fill="#F5F5F5" fill-opacity="0.82"/>
<path d="M61.7243 23.4698C63.5092 24.4086 64.781 26.1696 66.4332 27.3606C68.9116 29.1564 72.1238 29.5979 74.5579 31.4405C76.1217 32.6882 77.2963 34.3978 77.9319 36.351C78.5675 38.3042 78.6352 40.4123 78.1263 42.4061C77.568 44.3855 76.5287 46.1776 75.1109 47.6056C73.6931 49.0336 71.9458 50.0482 70.0414 50.5493C67.4079 51.2543 64.6579 51.3531 62.0067 52.0582C59.6126 52.7161 57.4947 54.0547 54.9312 54.2557C52.5608 54.4977 50.1885 53.8151 48.2653 52.3376C47.1131 51.4285 46.2532 50.1701 45.8014 48.7316C44.9986 46.3446 44.176 42.7446 45.0853 40.2702C45.9945 37.7958 47.7221 36.4767 49.076 34.5799C50.4299 32.6831 51.1084 30.1718 52.1422 27.8464C53.9451 24.0732 57.6928 21.3318 61.7243 23.4698Z" fill="#F5F5F5" fill-opacity="0.82"/>
<path d="M72.0103 25.3614C71.4461 24.91 70.9171 24.4119 70.4285 23.8716C69.7691 23.197 69.31 22.3357 69.1068 21.3921C68.9035 20.4485 68.9648 19.4632 69.2833 18.5555C69.7563 16.8643 70.5038 15.2718 71.4927 13.8484C72.1755 12.7291 73.0243 11.732 74.0068 10.8949C74.3292 10.6234 74.7046 10.4304 75.1063 10.3295C75.508 10.2287 75.9259 10.2226 76.3301 10.3118C76.8842 10.5424 77.3814 10.9019 77.7848 11.3632C78.1881 11.8245 78.4871 12.3757 78.6592 12.9757C79.3839 14.7463 79.8249 16.6308 79.9645 18.5528C80.1398 20.123 79.9509 21.7145 79.414 23.1912C79.1396 23.9239 78.7098 24.5811 78.1573 25.1125C77.6048 25.644 76.9442 26.0358 76.2259 26.258C74.8934 26.5744 73.4962 26.333 72.3301 25.5847C72.2235 25.5103 72.1169 25.4545 72.0103 25.3614Z" fill="#F5F5F5" fill-opacity="0.82"/>
<path d="M67.2653 6.45794C66.6478 3.48271 65.188 0.798426 62.2503 0.104507C58.8245 -0.709732 56.7826 3.40914 56.4154 6.37701C55.8907 9.65894 56.4444 13.0309 57.9852 15.9377C60.1384 19.4417 63.9611 18.9769 66.0755 15.7163C67.6094 12.9131 68.0366 9.58886 67.2653 6.45794Z" fill="#F5F5F5" fill-opacity="0.82"/>
<path d="M44.6725 32.4609C45.0267 31.8212 45.3253 31.1491 45.5649 30.453C45.9228 29.5617 46.0285 28.5806 45.8695 27.6276C45.7104 26.6747 45.2932 25.7902 44.668 25.0804C43.5972 23.7064 42.3109 22.535 40.8647 21.617C39.8242 20.8638 38.6762 20.2897 37.4639 19.9163C37.0637 19.8005 36.6443 19.7785 36.2351 19.8519C35.8259 19.9253 35.4371 20.0922 35.096 20.341C34.6736 20.7799 34.3511 21.3136 34.1524 21.9021C33.9538 22.4906 33.8842 23.1188 33.9489 23.7396C33.9352 25.6695 34.2234 27.5886 34.8019 29.4202C35.2179 30.9349 35.9786 32.3201 37.0182 33.4559C37.5425 34.0194 38.1819 34.4501 38.8878 34.7155C39.5938 34.9808 40.3478 35.0737 41.093 34.9873C42.4388 34.7342 43.6375 33.9383 44.4335 32.7693C44.5225 32.6749 44.6025 32.5716 44.6725 32.4609Z" fill="#F5F5F5" fill-opacity="0.82"/>
<path d="M41.1407 12.6503C40.6297 9.65616 41.0145 6.59494 43.4775 4.77988C46.3479 2.64676 49.7334 5.65378 51.1486 8.23553C52.8155 11.0481 53.5253 14.3726 53.1617 17.6647C52.4506 21.7623 48.7443 22.8894 45.6088 20.703C43.1804 18.732 41.5777 15.8435 41.1407 12.6503Z" fill="#F5F5F5" fill-opacity="0.82"/>
<path d="M149.243 260.046C152.458 260.455 155.305 262.442 158.445 263.341C163.15 264.676 168.283 263.591 172.973 265.013C176.002 266.042 178.673 267.996 180.644 270.625C182.615 273.255 183.797 276.442 184.041 279.781C184.189 283.126 183.509 286.454 182.068 289.44C180.626 292.426 178.472 294.967 175.817 296.815C172.13 299.387 167.968 301.072 164.261 303.664C160.912 306.039 158.381 309.267 154.518 311.041C151.01 312.748 147.028 313.042 143.328 311.868C141.102 311.1 139.153 309.635 137.742 307.669C135.296 304.464 132.209 299.42 132.335 295.115C132.438 291.16 134.426 287.807 135.546 284.138C136.666 280.469 136.439 276.16 136.866 272.149C137.606 265.342 141.982 259.051 149.243 260.046Z" fill="#EBEBEB" fill-opacity="0.84"/>
<path d="M165.96 257.125C164.867 256.764 163.807 256.301 162.793 255.741C159.765 254.192 158.588 251.773 158.312 248.247C158.166 245.371 158.489 242.49 159.267 239.729C159.738 237.641 160.518 235.643 161.578 233.81C161.938 233.204 162.423 232.691 162.997 232.308C163.57 231.925 164.218 231.682 164.892 231.596C166.814 231.419 168.508 232.859 169.812 234.349C171.819 236.659 173.458 239.295 174.665 242.156C175.728 244.462 176.246 247.004 176.175 249.565C176.123 250.839 175.797 252.084 175.222 253.207C174.647 254.33 173.838 255.301 172.856 256.047C170.975 257.283 168.711 257.7 166.544 257.211L165.96 257.125Z" fill="#EBEBEB" fill-opacity="0.84"/>
<path d="M149.036 230.857C146.593 226.649 142.978 223.369 138.116 223.961C132.448 224.657 131.438 232.107 132.386 236.859C133.383 241.842 135.706 247.389 139.61 250.583C144.653 254.753 150.394 251.867 151.886 245.671C153.111 240.75 151.502 235.099 149.036 230.857Z" fill="#EBEBEB" fill-opacity="0.84"/>
<path d="M127.729 283.447C127.937 282.264 128.049 281.065 128.063 279.862C128.2 276.322 126.749 274.095 123.928 272.155C121.607 270.665 119.061 269.604 116.4 269.018C114.422 268.453 112.37 268.229 110.324 268.354C109.658 268.406 109.011 268.609 108.428 268.949C107.844 269.29 107.338 269.76 106.945 270.326C105.888 272.015 106.278 274.272 106.912 276.181C107.88 279.139 109.3 281.912 111.117 284.388C112.537 286.472 114.413 288.164 116.588 289.322C117.679 289.884 118.876 290.18 120.091 290.187C121.306 290.194 122.507 289.911 123.603 289.361C125.538 288.207 126.965 286.302 127.58 284.054C127.623 283.876 127.684 283.666 127.729 283.447Z" fill="#EBEBEB" fill-opacity="0.84"/>
<path d="M112.214 255.097C109.893 250.812 108.916 245.905 111.762 241.718C115.081 236.828 121.771 239.517 125.263 242.683C128.931 246.016 132.417 250.844 133.181 255.98C134.182 262.663 129.072 266.485 123.15 264.897C118.466 263.638 114.545 259.42 112.214 255.097Z" fill="#EBEBEB" fill-opacity="0.84"/>
<path d="M35.4916 138.304C38.2009 137.522 41.0402 138.003 43.8002 137.582C47.9036 136.895 51.759 134.307 55.9198 133.742C58.6388 133.454 61.3304 134.004 63.6496 135.322C65.9687 136.641 67.8097 138.667 68.9365 141.141C69.9996 143.647 70.3915 146.435 70.0735 149.229C69.7555 152.024 68.7385 154.729 67.123 157.077C64.8856 160.346 62.059 163.159 59.7847 166.408C57.7549 169.383 56.6472 172.778 54.0749 175.473C51.733 178.045 48.5999 179.691 45.2791 180.093C43.2773 180.335 41.2905 179.924 39.6015 178.919C36.7368 177.333 32.8489 174.533 31.7532 171.218C30.6575 167.904 31.3773 164.889 31.2372 161.689C30.7857 158.379 30.0114 155.144 28.9258 152.032C27.6474 146.485 29.3849 140.118 35.4916 138.304Z" fill="#EBEBEB" fill-opacity="0.84"/>
<path d="M48.0786 130.182C47.0995 130.285 46.1186 130.304 45.1463 130.238C43.8732 130.213 42.6569 129.807 41.6455 129.069C40.634 128.331 39.8709 127.292 39.4489 126.081C38.5441 123.939 38.0089 121.632 37.8661 119.26C37.6526 117.488 37.7183 115.676 38.0606 113.891C38.1807 113.305 38.424 112.745 38.7729 112.253C39.1219 111.76 39.5679 111.347 40.0791 111.042C40.8616 110.73 41.6919 110.601 42.5077 110.664C43.3235 110.728 44.1036 110.981 44.7893 111.407C47.0511 112.467 49.1102 113.905 50.8876 115.667C52.3794 117.064 53.5063 118.825 54.1758 120.807C54.4942 121.805 54.5851 122.877 54.4418 123.944C54.2985 125.011 53.9247 126.046 53.3481 126.971C52.1775 128.571 50.4839 129.688 48.6127 130.093L48.0786 130.182Z" fill="#EBEBEB" fill-opacity="0.84"/>
<path d="M27.1455 116.046C23.9841 113.694 20.1664 112.459 16.4299 114.585C12.0676 117.126 13.3536 123.182 15.4425 126.49C17.6271 130.247 21.0321 133.052 25.1014 134.448C30.3287 135.837 34.0665 131.648 33.5686 126.345C32.8551 122.104 30.553 118.413 27.1455 116.046Z" fill="#EBEBEB" fill-opacity="0.84"/>
<path d="M24.7566 163.872C24.5948 162.894 24.3529 161.936 24.0334 161.009C23.6848 159.774 22.9905 158.69 22.0336 157.888C21.0768 157.085 19.8982 156.599 18.6392 156.487C16.3533 156.174 14.0081 156.273 11.7065 156.779C9.96048 157.044 8.25034 157.595 6.6416 158.409C6.11664 158.681 5.64921 159.065 5.27229 159.534C4.89536 160.002 4.61814 160.544 4.46015 161.121C4.37772 161.969 4.47913 162.813 4.75705 163.593C5.03496 164.372 5.48238 165.068 6.06672 165.628C7.67696 167.553 9.60058 169.173 11.7605 170.422C13.484 171.518 15.4647 172.153 17.5346 172.274C18.5671 172.318 19.61 172.12 20.5856 171.696C21.5613 171.272 22.4445 170.632 23.1694 169.824C24.3872 168.258 24.9983 166.304 24.8753 164.371C24.8467 164.201 24.807 164.035 24.7566 163.872Z" fill="#EBEBEB" fill-opacity="0.84"/>
<path d="M4.40551 147.619C1.37136 145.173 -0.811818 141.724 0.289836 137.537C1.59115 132.617 7.69984 132.3 11.391 133.488C15.5314 134.666 19.0827 137.267 21.4758 140.873C24.1426 145.652 21.115 150.371 15.9276 151.249C11.683 151.656 7.55071 150.355 4.40551 147.619Z" fill="#EBEBEB" fill-opacity="0.84"/>
</svg>
